<?xml version="1.0" encoding="UTF-8"?>
<svg xmlns="http://www.w3.org/2000/svg" width="860" height="1565" viewBox="0 0 860 1565">
  <rect width="100%" height="100%" fill="#14283a"/>
  <text x="430.0" y="22" text-anchor="middle" fill="#e8f0d8" font-family="Georgia, serif" font-size="16" font-weight="bold">Sorrow County</text>
  <path d="M 420.0 160.7 L 451.2 160.7 L 451.2 176.7 L 482.4 176.7 L 482.4 192.6 L 513.6 192.6 L 513.6 208.6 L 544.8 208.6 L 544.8 224.6 L 576.0 224.6 L 576.0 240.6 L 607.2 240.6 L 607.2 256.5 L 638.4 256.5 L 638.4 272.5" fill="none" stroke="#5c4a2e" stroke-width="32.7" stroke-linecap="square" stroke-linejoin="bevel"/>
  <path d="M 420.0 160.7 L 451.2 160.7 L 451.2 176.7 L 482.4 176.7 L 482.4 192.6 L 513.6 192.6 L 513.6 208.6 L 544.8 208.6 L 544.8 224.6 L 576.0 224.6 L 576.0 240.6 L 607.2 240.6 L 607.2 256.5 L 638.4 256.5 L 638.4 272.5" fill="none" stroke="#d4c49a" stroke-width="30.7" stroke-linecap="square" stroke-linejoin="bevel"/>
  <path d="M 420.0 160.7 L 388.8 160.7 L 388.8 176.7 L 357.6 176.7 L 357.6 192.6 L 326.4 192.6 L 326.4 208.6 L 295.2 208.6 L 295.2 224.6 L 264.0 224.6 L 264.0 240.6 L 232.8 240.6 L 232.8 256.5 L 201.6 256.5 L 201.6 272.5" fill="none" stroke="#5c4a2e" stroke-width="32.7" stroke-linecap="square" stroke-linejoin="bevel"/>
  <path d="M 420.0 160.7 L 388.8 160.7 L 388.8 176.7 L 357.6 176.7 L 357.6 192.6 L 326.4 192.6 L 326.4 208.6 L 295.2 208.6 L 295.2 224.6 L 264.0 224.6 L 264.0 240.6 L 232.8 240.6 L 232.8 256.5 L 201.6 256.5 L 201.6 272.5" fill="none" stroke="#d4c49a" stroke-width="30.7" stroke-linecap="square" stroke-linejoin="bevel"/>
  <rect x="403.3" y="160.7" width="33.3" height="266.6" fill="#5c4a2e"/>
  <rect x="404.5" y="161.9" width="30.9" height="264.2" fill="#d4c49a" stroke="#8a7a55" stroke-width="0.6"/>
  <rect x="201.6" y="245.2" width="436.8" height="54.6" fill="#5c4a2e"/>
  <rect x="202.8" y="246.4" width="434.4" height="52.2" fill="#d4c49a" stroke="#8a7a55" stroke-width="0.6"/>
  <path d="M 638.4 272.5 L 607.2 272.5 L 607.2 294.6 L 576.0 294.6 L 576.0 316.7 L 544.8 316.7 L 544.8 338.8 L 513.6 338.8 L 513.6 361.0 L 482.4 361.0 L 482.4 383.1 L 451.2 383.1 L 451.2 405.2 L 420.0 405.2 L 420.0 427.3" fill="none" stroke="#5c4a2e" stroke-width="35.5" stroke-linecap="square" stroke-linejoin="bevel"/>
  <path d="M 638.4 272.5 L 607.2 272.5 L 607.2 294.6 L 576.0 294.6 L 576.0 316.7 L 544.8 316.7 L 544.8 338.8 L 513.6 338.8 L 513.6 361.0 L 482.4 361.0 L 482.4 383.1 L 451.2 383.1 L 451.2 405.2 L 420.0 405.2 L 420.0 427.3" fill="none" stroke="#d4c49a" stroke-width="33.5" stroke-linecap="square" stroke-linejoin="bevel"/>
  <rect x="646.0" y="272.5" width="19.8" height="154.8" fill="#5c4a2e"/>
  <rect x="647.2" y="273.7" width="17.4" height="152.4" fill="#d4c49a" stroke="#8a7a55" stroke-width="0.6"/>
  <path d="M 201.6 272.5 L 232.8 272.5 L 232.8 294.6 L 264.0 294.6 L 264.0 316.7 L 295.2 316.7 L 295.2 338.8 L 326.4 338.8 L 326.4 361.0 L 357.6 361.0 L 357.6 383.1 L 388.8 383.1 L 388.8 405.2 L 420.0 405.2 L 420.0 427.3" fill="none" stroke="#5c4a2e" stroke-width="35.5" stroke-linecap="square" stroke-linejoin="bevel"/>
  <path d="M 201.6 272.5 L 232.8 272.5 L 232.8 294.6 L 264.0 294.6 L 264.0 316.7 L 295.2 316.7 L 295.2 338.8 L 326.4 338.8 L 326.4 361.0 L 357.6 361.0 L 357.6 383.1 L 388.8 383.1 L 388.8 405.2 L 420.0 405.2 L 420.0 427.3" fill="none" stroke="#d4c49a" stroke-width="33.5" stroke-linecap="square" stroke-linejoin="bevel"/>
  <rect x="174.1" y="272.5" width="19.8" height="154.8" fill="#5c4a2e"/>
  <rect x="175.3" y="273.7" width="17.4" height="152.4" fill="#d4c49a" stroke="#8a7a55" stroke-width="0.6"/>
  <rect x="166.5" y="395.6" width="507.0" height="63.4" fill="#5c4a2e"/>
  <rect x="167.7" y="396.8" width="504.6" height="61.0" fill="#d4c49a" stroke="#8a7a55" stroke-width="0.6"/>
  <rect x="420.0" y="411.5" width="253.5" height="31.7" fill="#5c4a2e"/>
  <rect x="421.2" y="412.7" width="251.1" height="29.3" fill="#d4c49a" stroke="#8a7a55" stroke-width="0.6"/>
  <rect x="646.0" y="427.3" width="19.8" height="154.8" fill="#5c4a2e"/>
  <rect x="647.2" y="428.5" width="17.4" height="152.4" fill="#d4c49a" stroke="#8a7a55" stroke-width="0.6"/>
  <rect x="166.5" y="411.5" width="253.5" height="31.7" fill="#5c4a2e"/>
  <rect x="167.7" y="412.7" width="251.1" height="29.3" fill="#d4c49a" stroke="#8a7a55" stroke-width="0.6"/>
  <rect x="174.1" y="427.3" width="19.8" height="154.8" fill="#5c4a2e"/>
  <rect x="175.3" y="428.5" width="17.4" height="152.4" fill="#d4c49a" stroke="#8a7a55" stroke-width="0.6"/>
  <path d="M 420.0 427.3 L 451.2 427.3 L 451.2 449.4 L 482.4 449.4 L 482.4 471.5 L 513.6 471.5 L 513.6 493.6 L 544.8 493.6 L 544.8 515.8 L 576.0 515.8 L 576.0 537.9 L 607.2 537.9 L 607.2 560.0 L 638.4 560.0 L 638.4 582.1" fill="none" stroke="#5c4a2e" stroke-width="35.5" stroke-linecap="square" stroke-linejoin="bevel"/>
  <path d="M 420.0 427.3 L 451.2 427.3 L 451.2 449.4 L 482.4 449.4 L 482.4 471.5 L 513.6 471.5 L 513.6 493.6 L 544.8 493.6 L 544.8 515.8 L 576.0 515.8 L 576.0 537.9 L 607.2 537.9 L 607.2 560.0 L 638.4 560.0 L 638.4 582.1" fill="none" stroke="#d4c49a" stroke-width="33.5" stroke-linecap="square" stroke-linejoin="bevel"/>
  <rect x="407.1" y="427.3" width="25.8" height="206.4" fill="#5c4a2e"/>
  <rect x="408.3" y="428.5" width="23.4" height="204.0" fill="#d4c49a" stroke="#8a7a55" stroke-width="0.6"/>
  <path d="M 420.0 427.3 L 388.8 427.3 L 388.8 449.4 L 357.6 449.4 L 357.6 471.5 L 326.4 471.5 L 326.4 493.6 L 295.2 493.6 L 295.2 515.8 L 264.0 515.8 L 264.0 537.9 L 232.8 537.9 L 232.8 560.0 L 201.6 560.0 L 201.6 582.1" fill="none" stroke="#5c4a2e" stroke-width="35.5" stroke-linecap="square" stroke-linejoin="bevel"/>
  <path d="M 420.0 427.3 L 388.8 427.3 L 388.8 449.4 L 357.6 449.4 L 357.6 471.5 L 326.4 471.5 L 326.4 493.6 L 295.2 493.6 L 295.2 515.8 L 264.0 515.8 L 264.0 537.9 L 232.8 537.9 L 232.8 560.0 L 201.6 560.0 L 201.6 582.1" fill="none" stroke="#d4c49a" stroke-width="33.5" stroke-linecap="square" stroke-linejoin="bevel"/>
  <rect x="201.6" y="554.8" width="436.8" height="54.6" fill="#5c4a2e"/>
  <rect x="202.8" y="556.0" width="434.4" height="52.2" fill="#d4c49a" stroke="#8a7a55" stroke-width="0.6"/>
  <rect x="420.0" y="593.9" width="218.4" height="28.1" fill="#5c4a2e"/>
  <rect x="421.2" y="595.1" width="216.0" height="25.7" fill="#d4c49a" stroke="#8a7a55" stroke-width="0.6"/>
  <path d="M 638.4 582.1 L 607.2 582.1 L 607.2 606.7 L 576.0 606.7 L 576.0 631.2 L 544.8 631.2 L 544.8 655.8 L 513.6 655.8 L 513.6 680.4 L 482.4 680.4 L 482.4 705.0 L 451.2 705.0 L 451.2 729.5 L 420.0 729.5 L 420.0 754.1" fill="none" stroke="#5c4a2e" stroke-width="36.7" stroke-linecap="square" stroke-linejoin="bevel"/>
  <path d="M 638.4 582.1 L 607.2 582.1 L 607.2 606.7 L 576.0 606.7 L 576.0 631.2 L 544.8 631.2 L 544.8 655.8 L 513.6 655.8 L 513.6 680.4 L 482.4 680.4 L 482.4 705.0 L 451.2 705.0 L 451.2 729.5 L 420.0 729.5 L 420.0 754.1" fill="none" stroke="#d4c49a" stroke-width="34.7" stroke-linecap="square" stroke-linejoin="bevel"/>
  <rect x="201.6" y="593.9" width="218.4" height="28.1" fill="#5c4a2e"/>
  <rect x="202.8" y="595.1" width="216.0" height="25.7" fill="#d4c49a" stroke="#8a7a55" stroke-width="0.6"/>
  <path d="M 201.6 582.1 L 232.8 582.1 L 232.8 606.7 L 264.0 606.7 L 264.0 631.2 L 295.2 631.2 L 295.2 655.8 L 326.4 655.8 L 326.4 680.4 L 357.6 680.4 L 357.6 705.0 L 388.8 705.0 L 388.8 729.5 L 420.0 729.5 L 420.0 754.1" fill="none" stroke="#5c4a2e" stroke-width="36.7" stroke-linecap="square" stroke-linejoin="bevel"/>
  <path d="M 201.6 582.1 L 232.8 582.1 L 232.8 606.7 L 264.0 606.7 L 264.0 631.2 L 295.2 631.2 L 295.2 655.8 L 326.4 655.8 L 326.4 680.4 L 357.6 680.4 L 357.6 705.0 L 388.8 705.0 L 388.8 729.5 L 420.0 729.5 L 420.0 754.1" fill="none" stroke="#d4c49a" stroke-width="34.7" stroke-linecap="square" stroke-linejoin="bevel"/>
  <rect x="412.5" y="633.7" width="15.1" height="120.4" fill="#5c4a2e"/>
  <rect x="413.7" y="634.9" width="12.7" height="118.0" fill="#d4c49a" stroke="#8a7a55" stroke-width="0.6"/>
  <rect x="410.2" y="785.1" width="19.5" height="172.0" fill="#5c4a2e"/>
  <rect x="411.4" y="786.3" width="17.1" height="169.6" fill="#d4c49a" stroke="#8a7a55" stroke-width="0.6"/>
  <rect x="280.0" y="931.1" width="52.0" height="52.0" fill="#d4c49a" stroke="#8a7a55" stroke-width="0.6"/>
  <rect x="332.0" y="957.1" width="52.0" height="52.0" fill="#d4c49a" stroke="#8a7a55" stroke-width="0.6"/>
  <rect x="384.0" y="957.1" width="78.0" height="52.0" fill="#d4c49a" stroke="#8a7a55" stroke-width="0.6"/>
  <rect x="462.0" y="957.1" width="52.0" height="52.0" fill="#d4c49a" stroke="#8a7a55" stroke-width="0.6"/>
  <rect x="514.0" y="931.1" width="52.0" height="52.0" fill="#d4c49a" stroke="#8a7a55" stroke-width="0.6"/>
  <rect x="566.0" y="957.1" width="52.0" height="26.0" fill="#d4c49a" stroke="#8a7a55" stroke-width="0.6"/>
  <rect x="618.0" y="957.1" width="52.0" height="26.0" fill="#d4c49a" stroke="#8a7a55" stroke-width="0.6"/>
  <rect x="618.0" y="983.1" width="78.0" height="78.0" fill="#d4c49a" stroke="#8a7a55" stroke-width="0.6"/>
  <rect x="618.0" y="1061.1" width="78.0" height="52.0" fill="#d4c49a" stroke="#8a7a55" stroke-width="0.6"/>
  <rect x="384.0" y="1009.1" width="52.0" height="468.0" fill="#d4c49a" stroke="#8a7a55" stroke-width="0.6"/>
  <rect x="384.0" y="1477.1" width="52.0" height="52.0" fill="#d4c49a" stroke="#8a7a55" stroke-width="0.6"/>
  <rect x="368.0" y="121.7" width="104.0" height="78.0" fill="#d4c49a" stroke="#8a7a55" stroke-width="1"/>
  <rect x="149.6" y="233.5" width="104.0" height="78.0" fill="#d4c49a" stroke="#8a7a55" stroke-width="1"/>
  <rect x="586.4" y="233.5" width="104.0" height="78.0" fill="#d4c49a" stroke="#8a7a55" stroke-width="1"/>
  <rect x="114.5" y="388.3" width="104.0" height="78.0" fill="#d4c49a" stroke="#8a7a55" stroke-width="1"/>
  <rect x="368.0" y="388.3" width="104.0" height="78.0" fill="#d4c49a" stroke="#8a7a55" stroke-width="1"/>
  <rect x="621.5" y="388.3" width="104.0" height="78.0" fill="#d4c49a" stroke="#8a7a55" stroke-width="1"/>
  <rect x="149.6" y="543.1" width="104.0" height="78.0" fill="#d4c49a" stroke="#8a7a55" stroke-width="1"/>
  <rect x="586.4" y="543.1" width="104.0" height="78.0" fill="#d4c49a" stroke="#8a7a55" stroke-width="1"/>
  <rect x="368.0" y="594.7" width="104.0" height="78.0" fill="#d4c49a" stroke="#8a7a55" stroke-width="1"/>
  <rect x="368.0" y="715.1" width="104.0" height="78.0" fill="#d4c49a" stroke="#8a7a55" stroke-width="1"/>
  <text x="541.2" y="193.2" text-anchor="middle" fill="#f8f4e2" font-family="Georgia, serif" font-size="7" stroke="#1a1408" stroke-width="2.2" paint-order="stroke">PATH OF ALEPH</text>
  <text x="298.8" y="193.2" text-anchor="middle" fill="#f8f4e2" font-family="Georgia, serif" font-size="7" stroke="#1a1408" stroke-width="2.2" paint-order="stroke">PATH OF BETH</text>
  <text x="392.3" y="294.0" text-anchor="middle" fill="#f8f4e2" font-family="Georgia, serif" font-size="7" stroke="#1a1408" stroke-width="2.2" paint-order="stroke">PATH OF GIMEL</text>
  <text x="420.0" y="234.2" text-anchor="middle" fill="#f8f4e2" font-family="Georgia, serif" font-size="7" stroke="#1a1408" stroke-width="2.2" paint-order="stroke">PATH OF DALETH</text>
  <text x="545.2" y="372.5" text-anchor="middle" fill="#f8f4e2" font-family="Georgia, serif" font-size="7" stroke="#1a1408" stroke-width="2.2" paint-order="stroke">PATH OF HE</text>
  <text x="676.4" y="345.3" text-anchor="middle" fill="#f8f4e2" font-family="Georgia, serif" font-size="7" stroke="#1a1408" stroke-width="2.2" paint-order="stroke">PATH OF VAU</text>
  <text x="326.8" y="327.3" text-anchor="middle" fill="#f8f4e2" font-family="Georgia, serif" font-size="7" stroke="#1a1408" stroke-width="2.2" paint-order="stroke">PATH OF ZAYIN</text>
  <text x="163.6" y="345.3" text-anchor="middle" fill="#f8f4e2" font-family="Georgia, serif" font-size="7" stroke="#1a1408" stroke-width="2.2" paint-order="stroke">PATH OF HETH</text>
  <text x="420.0" y="498.0" text-anchor="middle" fill="#f8f4e2" font-family="Georgia, serif" font-size="7" stroke="#1a1408" stroke-width="2.2" paint-order="stroke">PATH OF TETH</text>
  <text x="546.8" y="454.1" text-anchor="middle" fill="#f8f4e2" font-family="Georgia, serif" font-size="7" stroke="#1a1408" stroke-width="2.2" paint-order="stroke">PATH OF YOD</text>
  <text x="676.4" y="509.3" text-anchor="middle" fill="#f8f4e2" font-family="Georgia, serif" font-size="7" stroke="#1a1408" stroke-width="2.2" paint-order="stroke">PATH OF KAPH</text>
  <text x="293.2" y="454.1" text-anchor="middle" fill="#f8f4e2" font-family="Georgia, serif" font-size="7" stroke="#1a1408" stroke-width="2.2" paint-order="stroke">PATH OF LAMED</text>
  <text x="163.6" y="509.3" text-anchor="middle" fill="#f8f4e2" font-family="Georgia, serif" font-size="7" stroke="#1a1408" stroke-width="2.2" paint-order="stroke">PATH OF MEM</text>
  <text x="545.2" y="482.1" text-anchor="middle" fill="#f8f4e2" font-family="Georgia, serif" font-size="7" stroke="#1a1408" stroke-width="2.2" paint-order="stroke">PATH OF NUN</text>
  <text x="396.1" y="530.5" text-anchor="middle" fill="#f8f4e2" font-family="Georgia, serif" font-size="7" stroke="#1a1408" stroke-width="2.2" paint-order="stroke">PATH OF SAMEKH</text>
  <text x="326.8" y="539.3" text-anchor="middle" fill="#f8f4e2" font-family="Georgia, serif" font-size="7" stroke="#1a1408" stroke-width="2.2" paint-order="stroke">PATH OF AYIN</text>
  <text x="420.0" y="648.4" text-anchor="middle" fill="#f8f4e2" font-family="Georgia, serif" font-size="7" stroke="#1a1408" stroke-width="2.2" paint-order="stroke">PATH OF PEH</text>
  <text x="535.0" y="632.3" text-anchor="middle" fill="#f8f4e2" font-family="Georgia, serif" font-size="7" stroke="#1a1408" stroke-width="2.2" paint-order="stroke">PATH OF TZADDI</text>
  <text x="546.8" y="690.4" text-anchor="middle" fill="#f8f4e2" font-family="Georgia, serif" font-size="7" stroke="#1a1408" stroke-width="2.2" paint-order="stroke">PATH OF QOPH</text>
  <text x="305.0" y="632.3" text-anchor="middle" fill="#f8f4e2" font-family="Georgia, serif" font-size="7" stroke="#1a1408" stroke-width="2.2" paint-order="stroke">PATH OF RESH</text>
  <text x="293.2" y="690.4" text-anchor="middle" fill="#f8f4e2" font-family="Georgia, serif" font-size="7" stroke="#1a1408" stroke-width="2.2" paint-order="stroke">PATH OF SHIN</text>
  <text x="401.5" y="693.9" text-anchor="middle" fill="#f8f4e2" font-family="Georgia, serif" font-size="7" stroke="#1a1408" stroke-width="2.2" paint-order="stroke">PATH OF TAU</text>
  <text x="490.0" y="863.1" text-anchor="middle" fill="#f8f4e2" font-family="Georgia, serif" font-size="8" stroke="#1a1408" stroke-width="2.2" paint-order="stroke">The Weeping Road</text>
  <text x="420.0" y="118.7" text-anchor="middle" fill="#f8f4e2" font-family="Georgia, serif" font-size="9" stroke="#1a1408" stroke-width="2.2" paint-order="stroke">KETER</text>
  <circle cx="420.0" cy="160.7" r="6" fill="#0a2f52" stroke="#04182b" stroke-width="1"/>
  <path d="M 420.0 156.5 L 423.6 160.7 L 420.0 164.9 L 416.4 160.7 Z" fill="#29b6ff" stroke="#0288d1" stroke-width="0.5"/>
  <text x="201.6" y="230.5" text-anchor="middle" fill="#f8f4e2" font-family="Georgia, serif" font-size="9" stroke="#1a1408" stroke-width="2.2" paint-order="stroke">BINAH</text>
  <circle cx="201.6" cy="272.5" r="6" fill="#0a2f52" stroke="#04182b" stroke-width="1"/>
  <path d="M 201.6 268.3 L 205.2 272.5 L 201.6 276.7 L 198.0 272.5 Z" fill="#29b6ff" stroke="#0288d1" stroke-width="0.5"/>
  <text x="638.4" y="230.5" text-anchor="middle" fill="#f8f4e2" font-family="Georgia, serif" font-size="9" stroke="#1a1408" stroke-width="2.2" paint-order="stroke">CHOKMAH</text>
  <circle cx="638.4" cy="272.5" r="6" fill="#0a2f52" stroke="#04182b" stroke-width="1"/>
  <path d="M 638.4 268.3 L 642.0 272.5 L 638.4 276.7 L 634.8 272.5 Z" fill="#29b6ff" stroke="#0288d1" stroke-width="0.5"/>
  <text x="166.5" y="385.3" text-anchor="middle" fill="#f8f4e2" font-family="Georgia, serif" font-size="9" stroke="#1a1408" stroke-width="2.2" paint-order="stroke">GEVURAH</text>
  <circle cx="166.5" cy="427.3" r="6" fill="#0a2f52" stroke="#04182b" stroke-width="1"/>
  <path d="M 166.5 423.1 L 170.1 427.3 L 166.5 431.5 L 162.9 427.3 Z" fill="#29b6ff" stroke="#0288d1" stroke-width="0.5"/>
  <text x="420.0" y="385.3" text-anchor="middle" fill="#f8f4e2" font-family="Georgia, serif" font-size="9" stroke="#1a1408" stroke-width="2.2" paint-order="stroke">TIFERET</text>
  <circle cx="420.0" cy="427.3" r="6" fill="#0a2f52" stroke="#04182b" stroke-width="1"/>
  <path d="M 420.0 423.1 L 423.6 427.3 L 420.0 431.5 L 416.4 427.3 Z" fill="#29b6ff" stroke="#0288d1" stroke-width="0.5"/>
  <text x="673.5" y="385.3" text-anchor="middle" fill="#f8f4e2" font-family="Georgia, serif" font-size="9" stroke="#1a1408" stroke-width="2.2" paint-order="stroke">CHESED</text>
  <circle cx="673.5" cy="427.3" r="6" fill="#0a2f52" stroke="#04182b" stroke-width="1"/>
  <path d="M 673.5 423.1 L 677.1 427.3 L 673.5 431.5 L 669.9 427.3 Z" fill="#29b6ff" stroke="#0288d1" stroke-width="0.5"/>
  <text x="201.6" y="540.1" text-anchor="middle" fill="#f8f4e2" font-family="Georgia, serif" font-size="9" stroke="#1a1408" stroke-width="2.2" paint-order="stroke">HOD</text>
  <circle cx="201.6" cy="582.1" r="6" fill="#0a2f52" stroke="#04182b" stroke-width="1"/>
  <path d="M 201.6 577.9 L 205.2 582.1 L 201.6 586.3 L 198.0 582.1 Z" fill="#29b6ff" stroke="#0288d1" stroke-width="0.5"/>
  <text x="638.4" y="540.1" text-anchor="middle" fill="#f8f4e2" font-family="Georgia, serif" font-size="9" stroke="#1a1408" stroke-width="2.2" paint-order="stroke">NETZACH</text>
  <circle cx="638.4" cy="582.1" r="6" fill="#0a2f52" stroke="#04182b" stroke-width="1"/>
  <path d="M 638.4 577.9 L 642.0 582.1 L 638.4 586.3 L 634.8 582.1 Z" fill="#29b6ff" stroke="#0288d1" stroke-width="0.5"/>
  <text x="420.0" y="591.7" text-anchor="middle" fill="#f8f4e2" font-family="Georgia, serif" font-size="9" stroke="#1a1408" stroke-width="2.2" paint-order="stroke">YESOD</text>
  <circle cx="420.0" cy="633.7" r="6" fill="#0a2f52" stroke="#04182b" stroke-width="1"/>
  <path d="M 420.0 629.5 L 423.6 633.7 L 420.0 637.9 L 416.4 633.7 Z" fill="#29b6ff" stroke="#0288d1" stroke-width="0.5"/>
  <text x="420.0" y="712.1" text-anchor="middle" fill="#f8f4e2" font-family="Georgia, serif" font-size="9" stroke="#1a1408" stroke-width="2.2" paint-order="stroke">MALKUTH</text>
  <circle cx="420.0" cy="754.1" r="6" fill="#0a2f52" stroke="#04182b" stroke-width="1"/>
  <path d="M 420.0 749.9 L 423.6 754.1 L 420.0 758.3 L 416.4 754.1 Z" fill="#29b6ff" stroke="#0288d1" stroke-width="0.5"/>
  <text x="306.0" y="942.1" text-anchor="middle" fill="#f8f4e2" font-family="Georgia, serif" font-size="8" stroke="#1a1408" stroke-width="2.2" paint-order="stroke">The Reach</text>
  <circle cx="306.0" cy="957.1" r="6" fill="#0a2f52" stroke="#04182b" stroke-width="1"/>
  <path d="M 306.0 952.9 L 309.6 957.1 L 306.0 961.3 L 302.4 957.1 Z" fill="#29b6ff" stroke="#0288d1" stroke-width="0.5"/>
  <text x="358.0" y="968.1" text-anchor="middle" fill="#f8f4e2" font-family="Georgia, serif" font-size="8" stroke="#1a1408" stroke-width="2.2" paint-order="stroke">The Ruins</text>
  <text x="423.0" y="968.1" text-anchor="middle" fill="#f8f4e2" font-family="Georgia, serif" font-size="8" stroke="#1a1408" stroke-width="2.2" paint-order="stroke">CryTown</text>
  <circle cx="423.0" cy="983.1" r="6" fill="#0a2f52" stroke="#04182b" stroke-width="1"/>
  <path d="M 423.0 978.9 L 426.6 983.1 L 423.0 987.3 L 419.4 983.1 Z" fill="#29b6ff" stroke="#0288d1" stroke-width="0.5"/>
  <text x="488.0" y="968.1" text-anchor="middle" fill="#f8f4e2" font-family="Georgia, serif" font-size="8" stroke="#1a1408" stroke-width="2.2" paint-order="stroke">The Cliffs</text>
  <text x="540.0" y="942.1" text-anchor="middle" fill="#f8f4e2" font-family="Georgia, serif" font-size="8" stroke="#1a1408" stroke-width="2.2" paint-order="stroke">The Marsh</text>
  <text x="592.0" y="968.1" text-anchor="middle" fill="#f8f4e2" font-family="Georgia, serif" font-size="8" stroke="#1a1408" stroke-width="2.2" paint-order="stroke">The Quarry</text>
  <text x="644.0" y="968.1" text-anchor="middle" fill="#f8f4e2" font-family="Georgia, serif" font-size="8" stroke="#1a1408" stroke-width="2.2" paint-order="stroke">The Camp</text>
  <circle cx="644.0" cy="970.1" r="6" fill="#0a2f52" stroke="#04182b" stroke-width="1"/>
  <path d="M 644.0 965.9 L 647.6 970.1 L 644.0 974.3 L 640.4 970.1 Z" fill="#29b6ff" stroke="#0288d1" stroke-width="0.5"/>
  <text x="657.0" y="994.1" text-anchor="middle" fill="#f8f4e2" font-family="Georgia, serif" font-size="8" stroke="#1a1408" stroke-width="2.2" paint-order="stroke">The Forest</text>
  <text x="657.0" y="1072.1" text-anchor="middle" fill="#f8f4e2" font-family="Georgia, serif" font-size="8" stroke="#1a1408" stroke-width="2.2" paint-order="stroke">The Prison</text>
  <circle cx="657.0" cy="1087.1" r="6" fill="#0a2f52" stroke="#04182b" stroke-width="1"/>
  <path d="M 657.0 1082.9 L 660.6 1087.1 L 657.0 1091.3 L 653.4 1087.1 Z" fill="#29b6ff" stroke="#0288d1" stroke-width="0.5"/>
  <text x="410.0" y="1246.1" text-anchor="middle" fill="#f8f4e2" font-family="Georgia, serif" font-size="8" stroke="#1a1408" stroke-width="2.2" paint-order="stroke">Gauntlet</text>
  <text x="410.0" y="1488.1" text-anchor="middle" fill="#f8f4e2" font-family="Georgia, serif" font-size="8" stroke="#1a1408" stroke-width="2.2" paint-order="stroke">Heavenfall Shrine</text>
  <circle cx="410.0" cy="1503.1" r="6" fill="#0a2f52" stroke="#04182b" stroke-width="1"/>
  <path d="M 410.0 1498.9 L 413.6 1503.1 L 410.0 1507.3 L 406.4 1503.1 Z" fill="#29b6ff" stroke="#0288d1" stroke-width="0.5"/>
</svg>
